<svg xmlns="http://www.w3.org/2000/svg" width="19.047" height="19.956" viewBox="0 0 19.047 19.956">
  <g id="Group_168" data-name="Group 168" transform="translate(-2338.118 -1897.76)">
    <path id="Path_309" data-name="Path 309" d="M2347.642,1911.9a4.158,4.158,0,1,1,4.157-4.158A4.163,4.163,0,0,1,2347.642,1911.9Zm0-7.068a2.91,2.91,0,1,0,2.91,2.91A2.914,2.914,0,0,0,2347.642,1904.828Z" fill="#828282"/>
    <path id="Path_310" data-name="Path 310" d="M2349.025,1917.716h-2.766a1.443,1.443,0,0,1-1.4-1.123l-.35-1.557a7.7,7.7,0,0,1-1.625-.943l-1.516.478a1.44,1.44,0,0,1-1.683-.656l-1.378-2.384a1.453,1.453,0,0,1,.267-1.774l1.175-1.08a8.356,8.356,0,0,1-.054-.939,8.591,8.591,0,0,1,.053-.939l-1.169-1.074a1.451,1.451,0,0,1-.277-1.772l1.387-2.4a1.441,1.441,0,0,1,1.677-.651l1.518.48a7.662,7.662,0,0,1,1.625-.944l.351-1.558a1.441,1.441,0,0,1,1.4-1.121h2.766a1.441,1.441,0,0,1,1.4,1.123l.351,1.557a7.674,7.674,0,0,1,1.624.943l1.516-.479a1.442,1.442,0,0,1,1.683.657l1.379,2.384a1.453,1.453,0,0,1-.267,1.774l-1.175,1.08a8.5,8.5,0,0,1,0,1.878l1.169,1.074.006.005a1.449,1.449,0,0,1,.271,1.767l-1.387,2.4a1.44,1.44,0,0,1-1.677.649l-1.519-.479a7.631,7.631,0,0,1-1.624.943l-.351,1.559a1.439,1.439,0,0,1-1.4,1.122Zm-6.011-4.94a.622.622,0,0,1,.4.142,6.4,6.4,0,0,0,1.854,1.076.623.623,0,0,1,.392.448l.423,1.879a.188.188,0,0,0,.181.148h2.765a.186.186,0,0,0,.18-.146l.424-1.881a.624.624,0,0,1,.393-.448,6.424,6.424,0,0,0,1.853-1.076.624.624,0,0,1,.585-.114l1.83.578a.185.185,0,0,0,.22-.076l1.387-2.4a.2.2,0,0,0-.04-.24l-1.4-1.291a.623.623,0,0,1-.2-.551,7.249,7.249,0,0,0,0-2.175.625.625,0,0,1,.2-.552l1.407-1.294a.2.2,0,0,0,.032-.244l-1.379-2.384a.186.186,0,0,0-.226-.083l-1.827.577a.623.623,0,0,1-.585-.114,6.4,6.4,0,0,0-1.854-1.075.625.625,0,0,1-.392-.448l-.423-1.88a.191.191,0,0,0-.182-.146h-2.766a.186.186,0,0,0-.18.146l-.424,1.881a.621.621,0,0,1-.392.448,6.426,6.426,0,0,0-1.854,1.076.629.629,0,0,1-.584.113l-1.83-.577a.19.19,0,0,0-.221.076l-1.387,2.4a.205.205,0,0,0,.043.243l1.4,1.288a.623.623,0,0,1,.194.551,7.525,7.525,0,0,0-.081,1.087,7.384,7.384,0,0,0,.082,1.088.622.622,0,0,1-.2.551l-1.407,1.294a.2.2,0,0,0-.032.244l1.379,2.384a.191.191,0,0,0,.226.083l1.828-.577a.6.6,0,0,1,.188-.029Z" fill="#828282"/>
  </g>
</svg>
