<svg xmlns="http://www.w3.org/2000/svg" width="20.198" height="13.391" viewBox="0 0 20.198 13.391">
  <g id="Group_167" data-name="Group 167" transform="translate(-2337.422 -1712.025)">
    <path id="Path_300" data-name="Path 300" d="M2349.721,1719.509a2.078,2.078,0,1,1,2.078-2.079A2.081,2.081,0,0,1,2349.721,1719.509Zm0-2.91a.831.831,0,1,0,.831.831A.832.832,0,0,0,2349.721,1716.6Z" fill="#fff"/>
    <path id="Path_301" data-name="Path 301" d="M2344.316,1716.807h1.663v1.247h-1.663Z" fill="#fff"/>
    <path id="Path_302" data-name="Path 302" d="M2353.463,1716.807h1.663v1.247h-1.663Z" fill="#fff"/>
    <path id="Path_303" data-name="Path 303" d="M2355.333,1722.835h-8.481a.623.623,0,1,1,0-1.247h8.481a1.041,1.041,0,0,0,1.04-1.039v-6.237a1.041,1.041,0,0,0-1.04-1.039h-11.225a1.041,1.041,0,0,0-1.04,1.039v5.682a.624.624,0,1,1-1.247,0v-5.682a2.289,2.289,0,0,1,2.287-2.287h11.225a2.289,2.289,0,0,1,2.287,2.287v6.237A2.288,2.288,0,0,1,2355.333,1722.835Z" fill="#fff"/>
    <path id="Path_304" data-name="Path 304" d="M2337.763,1725.416l-.185-1.234,4.739-.711a6.8,6.8,0,0,0,2.553-.9l2.093-1.257a.969.969,0,0,0-.5-1.8,4.032,4.032,0,0,0-1.507.29l-3.9,1.56-.463-1.158,3.9-1.56a5.284,5.284,0,0,1,1.97-.379,2.216,2.216,0,0,1,1.14,4.117l-2.093,1.255a8.008,8.008,0,0,1-3.014,1.071Z" fill="#fff"/>
    <path id="Path_305" data-name="Path 305" d="M2350.531,1725.33a1.806,1.806,0,0,1-1.714-2.378l.312-.937a.622.622,0,0,1,.591-.427h2.494a.621.621,0,0,1,.506.259.628.628,0,0,1,.086.563l-.563,1.685a1.8,1.8,0,0,1-1.712,1.235Zm-.361-2.495-.17.511a.553.553,0,0,0,.077.5.58.58,0,0,0,.985-.15l.288-.865Z" fill="#fff"/>
    <path id="Path_306" data-name="Path 306" d="M2348.036,1725.33a1.807,1.807,0,0,1-1.714-2.378l.312-.937a.623.623,0,0,1,.591-.427h2.495a.624.624,0,0,1,.591.822l-.562,1.685a1.8,1.8,0,0,1-1.713,1.235Zm-.36-2.495-.171.511a.554.554,0,0,0,.078.5.579.579,0,0,0,.984-.15l.288-.865Z" fill="#fff"/>
    <path id="Path_307" data-name="Path 307" d="M2345.541,1725.33a1.808,1.808,0,0,1-1.8-1.6.624.624,0,0,1,.547-.692.631.631,0,0,1,.693.546.56.56,0,0,0,1.088.114l.562-1.686a.624.624,0,1,1,1.183.394l-.562,1.685a1.8,1.8,0,0,1-1.715,1.236Z" fill="#fff"/>
    <path id="Path_308" data-name="Path 308" d="M2338.46,1716.84l-1.038-.692.626-.938a5.274,5.274,0,0,1,4.4-2.353h.623v1.247h-.623a4.032,4.032,0,0,0-3.36,1.8Z" fill="#fff"/>
  </g>
</svg>
