<svg xmlns="http://www.w3.org/2000/svg" width="28.435" height="28.435" viewBox="0 0 28.435 28.435">
  <g id="Group_202" data-name="Group 202" transform="translate(-2683.09 -2216.905)">
    <circle id="Ellipse_33" data-name="Ellipse 33" cx="14.217" cy="14.217" r="14.217" transform="translate(2683.09 2216.905)" fill="#ea2d2d"/>
    <g id="Group_201" data-name="Group 201">
      <path id="Path_369" data-name="Path 369" d="M2700.115,2237.639a.115.115,0,0,1,.152,0Z" fill="#fff"/>
      <path id="Path_370" data-name="Path 370" d="M2703.824,2233.93c-.026-.017-.033-.034,0-.051Z" fill="#fff"/>
      <path id="Path_371" data-name="Path 371" d="M2703.824,2234.387c-.035-.017-.028-.034,0-.051Z" fill="#fff"/>
      <path id="Path_372" data-name="Path 372" d="M2700.521,2237.639c.017-.028.034-.035.051,0Z" fill="#fff"/>
      <path id="Path_373" data-name="Path 373" d="M2691.358,2230.8a5.689,5.689,0,0,1,10.176-3.428,5.6,5.6,0,0,1,1.074,2.284.539.539,0,1,1-1.05.245,4.635,4.635,0,0,0-4.739-3.631,4.605,4.605,0,0,0-.96,9.048c.081.022.164.039.245.062a.537.537,0,0,1,.39.635.529.529,0,0,1-.64.413,5.634,5.634,0,0,1-4.1-3.486A5.48,5.48,0,0,1,2691.358,2230.8Z" fill="#fff"/>
      <path id="Path_374" data-name="Path 374" d="M2697.594,2229.244q0,.768,0,1.536a.559.559,0,0,1-.622.629c-.681,0-1.363,0-2.044,0a.546.546,0,0,1-.552-.725.538.538,0,0,1,.516-.36c.5,0,1,0,1.5,0,.1,0,.121-.031.121-.125,0-.859,0-1.718,0-2.577a.541.541,0,0,1,.994-.3.614.614,0,0,1,.092.35C2697.593,2228.194,2697.594,2228.719,2697.594,2229.244Z" fill="#fff"/>
      <path id="Path_375" data-name="Path 375" d="M2703.777,2233.539a3.522,3.522,0,1,0-4.289,4,2.221,2.221,0,0,1,.424.1h.2a.192.192,0,0,1,.152,0h.254a.033.033,0,0,1,.051,0h.076c.141-.025.284-.02.424-.053a3.536,3.536,0,0,0,2.4-1.855,3.2,3.2,0,0,0,.357-1.217v-.127a.033.033,0,0,1,0-.051v-.406a.033.033,0,0,1,0-.051v-.127C2703.773,2233.689,2703.788,2233.61,2703.777,2233.539Zm-3.475,2.474a.542.542,0,1,1,0-1.085.542.542,0,0,1,0,1.085Zm.543-1.933a.545.545,0,1,1-1.086,0c0-.427,0-.854,0-1.281a.543.543,0,1,1,1.084-.008c0,.219,0,.44,0,.659S2700.847,2233.869,2700.845,2234.08Z" fill="#fff"/>
    </g>
  </g>
</svg>
