<svg xmlns="http://www.w3.org/2000/svg" width="18.37" height="18.37" viewBox="0 0 18.37 18.37">
  <g id="Group_152" data-name="Group 152" transform="translate(-1660.852 -1858.747)">
    <circle id="Ellipse_17" data-name="Ellipse 17" cx="9.185" cy="9.185" r="9.185" transform="translate(1660.852 1858.747)" fill="#494949"/>
    <g id="Group_151" data-name="Group 151">
      <path id="Path_272" data-name="Path 272" d="M1671.4,1870.719c.038.039.052.066.013.13a3.029,3.029,0,0,1-2.517,1.342c-.387,0-.5-.193-.5-.387a15.5,15.5,0,0,1,.76-2.4l.348-1.019a2.708,2.708,0,0,0,.194-.723.156.156,0,0,0-.167-.167c-.207,0-.787.659-.942.865-.051.051-.1.051-.142.012l-.117-.115c-.037-.039-.064-.091-.037-.117a3.612,3.612,0,0,1,2.476-1.587c.4,0,.568.207.568.464a5.786,5.786,0,0,1-.412,1.419l-.7,1.975a2.67,2.67,0,0,0-.206.787.159.159,0,0,0,.168.181c.258,0,.878-.684.954-.8a.07.07,0,0,1,.1-.012Zm.386-6.322a.932.932,0,0,1-.89.852.75.75,0,0,1-.826-.787.82.82,0,0,1,.8-.788C1671.494,1863.674,1671.79,1864,1671.79,1864.4Z" fill="#fff"/>
    </g>
  </g>
</svg>
