<svg xmlns="http://www.w3.org/2000/svg" width="28.435" height="28.435" viewBox="0 0 28.435 28.435">
  <g id="Group_199" data-name="Group 199" transform="translate(-2683.09 -2088.256)">
    <circle id="Ellipse_31" data-name="Ellipse 31" cx="14.217" cy="14.217" r="14.217" transform="translate(2683.09 2088.256)" fill="#13cae8"/>
    <g id="Group_198" data-name="Group 198">
      <path id="Path_356" data-name="Path 356" d="M2691.1,2102.038a1.948,1.948,0,0,0,.066-.408,6.11,6.11,0,0,1,2.686-4.26,6.17,6.17,0,0,1,6.8-.066c.08.052.119.059.174-.031.1-.158.207-.307.315-.458.042-.06.088-.124.174-.109s.107.094.126.162c.149.531.3,1.062.442,1.595a.286.286,0,0,1-.286.4l-1.6.144h-.012c-.081,0-.17.019-.218-.065s.009-.147.052-.21c.1-.14.185-.286.291-.417.084-.1.055-.141-.048-.205a5.014,5.014,0,0,0-2.812-.786,5.1,5.1,0,0,0-4.019,1.971,4.876,4.876,0,0,0-1.12,3.09,5.1,5.1,0,0,0,2.25,4.423,5.048,5.048,0,0,0,1.992.83.5.5,0,1,1-.172.983,6.217,6.217,0,0,1-5.03-5.348.641.641,0,0,0-.047-.264v-.17a.649.649,0,0,0,.012-.2v-.142a.977.977,0,0,0-.012-.242v-.073a.031.031,0,0,0,0-.048Z" fill="#fefefe"/>
      <path id="Path_357" data-name="Path 357" d="M2691.1,2102.256c.048.077.014.162.022.242-.008.011-.015.011-.022,0Z" fill="#fefefe"/>
      <path id="Path_358" data-name="Path 358" d="M2691.126,2102.644c-.009.064.028.134-.022.193v-.194C2691.111,2102.632,2691.119,2102.632,2691.126,2102.644Z" fill="#fefefe"/>
      <path id="Path_359" data-name="Path 359" d="M2691.126,2102.644h-.022v-.145h.022Z" fill="#fefefe"/>
      <path id="Path_360" data-name="Path 360" d="M2691.1,2102.135c.036.016.032.032,0,.048Z" fill="#fefefe"/>
      <path id="Path_361" data-name="Path 361" d="M2697.4,2100.619c0,.561,0,1.122,0,1.683a.163.163,0,0,0,.1.174q1.547.8,3.089,1.6a.4.4,0,0,1,.256.467.4.4,0,0,1-.531.289,3.183,3.183,0,0,1-.3-.148q-1.662-.859-3.325-1.717a.142.142,0,0,1-.094-.145q0-1.938,0-3.875a.4.4,0,0,1,.374-.449.4.4,0,0,1,.43.417C2697.405,2099.48,2697.4,2100.049,2697.4,2100.619Z" fill="#fefefe"/>
      <path id="Path_362" data-name="Path 362" d="M2701.155,2106.214v-.025a.934.934,0,0,1,.711-.739.492.492,0,0,1,.431.74,1.735,1.735,0,0,1-.318.4.465.465,0,0,1-.528.087A.483.483,0,0,1,2701.155,2106.214Z" fill="#fefefe"/>
      <path id="Path_363" data-name="Path 363" d="M2699.175,2108.052a.483.483,0,0,1-.344.474,3.051,3.051,0,0,1-.436.1.493.493,0,0,1-.542-.4.487.487,0,0,1,.336-.568,2.914,2.914,0,0,1,.412-.093A.49.49,0,0,1,2699.175,2108.052Z" fill="#fefefe"/>
      <path id="Path_364" data-name="Path 364" d="M2702.679,2105.044a.5.5,0,0,1-.521-.629,2.8,2.8,0,0,1,.141-.4.495.495,0,0,1,.931.324,2.924,2.924,0,0,1-.137.4A.47.47,0,0,1,2702.679,2105.044Z" fill="#fefefe"/>
      <path id="Path_365" data-name="Path 365" d="M2702.681,2101.223a.462.462,0,0,1-.416-.3,3.8,3.8,0,0,1-.141-.4.493.493,0,0,1,.905-.369,1.776,1.776,0,0,1,.182.5A.5.5,0,0,1,2702.681,2101.223Z" fill="#fefefe"/>
      <path id="Path_366" data-name="Path 366" d="M2702.511,2102.472c0-.057,0-.113,0-.17a.5.5,0,0,1,.993-.024,2.94,2.94,0,0,1,0,.4.5.5,0,0,1-.99-.012c0-.064,0-.129,0-.193Z" fill="#fefefe"/>
      <path id="Path_367" data-name="Path 367" d="M2700.164,2107.951a.5.5,0,0,1-.475-.328.485.485,0,0,1,.163-.553,3.1,3.1,0,0,1,.4-.247.487.487,0,0,1,.565.112.5.5,0,0,1,.072.583A1.22,1.22,0,0,1,2700.164,2107.951Z" fill="#fefefe"/>
    </g>
  </g>
</svg>
