<svg xmlns="http://www.w3.org/2000/svg" width="20.197" height="13.391" viewBox="0 0 20.197 13.391">
  <g id="Group_113" data-name="Group 113" transform="translate(-180.073 -1712.025)">
    <path id="Path_226" data-name="Path 226" d="M192.371,1719.509a2.078,2.078,0,1,1,2.079-2.079A2.081,2.081,0,0,1,192.371,1719.509Zm0-2.91a.831.831,0,1,0,.831.831A.832.832,0,0,0,192.371,1716.6Z" fill="#828282"/>
    <path id="Path_227" data-name="Path 227" d="M186.966,1716.807h1.663v1.247h-1.663Z" fill="#828282"/>
    <path id="Path_228" data-name="Path 228" d="M196.113,1716.807h1.663v1.247h-1.663Z" fill="#828282"/>
    <path id="Path_229" data-name="Path 229" d="M197.984,1722.835H189.5a.623.623,0,0,1,0-1.247h8.482a1.04,1.04,0,0,0,1.039-1.039v-6.237a1.04,1.04,0,0,0-1.039-1.039H186.758a1.04,1.04,0,0,0-1.039,1.039v5.682a.624.624,0,1,1-1.248,0v-5.682a2.29,2.29,0,0,1,2.287-2.287h11.226a2.289,2.289,0,0,1,2.286,2.287v6.237A2.288,2.288,0,0,1,197.984,1722.835Z" fill="#828282"/>
    <path id="Path_230" data-name="Path 230" d="M180.414,1725.416l-.186-1.234,4.739-.711a6.791,6.791,0,0,0,2.553-.9l2.094-1.257a.969.969,0,0,0-.5-1.8,4.037,4.037,0,0,0-1.508.29l-3.9,1.56-.463-1.158,3.9-1.56a5.284,5.284,0,0,1,1.971-.379,2.216,2.216,0,0,1,1.14,4.117l-2.093,1.255a8.013,8.013,0,0,1-3.015,1.071Z" fill="#828282"/>
    <path id="Path_231" data-name="Path 231" d="M193.181,1725.33a1.807,1.807,0,0,1-1.714-2.378l.312-.937a.623.623,0,0,1,.591-.427h2.5a.624.624,0,0,1,.591.822l-.562,1.685a1.8,1.8,0,0,1-1.713,1.235Zm-.36-2.495-.171.511a.55.55,0,0,0,.078.5.58.58,0,0,0,.984-.15l.288-.865Z" fill="#828282"/>
    <path id="Path_232" data-name="Path 232" d="M190.686,1725.33a1.807,1.807,0,0,1-1.714-2.378l.312-.937a.625.625,0,0,1,.592-.427h2.494a.623.623,0,0,1,.591.822l-.562,1.685a1.8,1.8,0,0,1-1.713,1.235Zm-.36-2.495-.17.511a.55.55,0,0,0,.077.5.58.58,0,0,0,.985-.15l.287-.865Z" fill="#828282"/>
    <path id="Path_233" data-name="Path 233" d="M188.192,1725.33a1.808,1.808,0,0,1-1.8-1.6.623.623,0,0,1,.547-.692.63.63,0,0,1,.692.546.56.56,0,0,0,1.088.114l.562-1.686a.623.623,0,1,1,1.183.394l-.562,1.685a1.8,1.8,0,0,1-1.714,1.236Z" fill="#828282"/>
    <path id="Path_234" data-name="Path 234" d="M181.11,1716.84l-1.037-.692.625-.938a5.275,5.275,0,0,1,4.4-2.353h.624v1.247H185.1a4.03,4.03,0,0,0-3.359,1.8Z" fill="#828282"/>
  </g>
</svg>
