<svg xmlns="http://www.w3.org/2000/svg" width="14.967" height="19.956" viewBox="0 0 14.967 19.956">
  <g id="Group_176" data-name="Group 176" transform="translate(-2340.158 -1832.661)">
    <g id="Group_172" data-name="Group 172">
      <g id="line">
        <g id="Group_170" data-name="Group 170">
          <path id="Path_313" data-name="Path 313" d="M2355.125,1836.611v13.72a2.288,2.288,0,0,1-2.286,2.286h-10.394a2.29,2.29,0,0,1-2.287-2.286v-13.72a2.289,2.289,0,0,1,2.287-2.287h2.91v1.247h-2.91a1.042,1.042,0,0,0-1.04,1.04v13.72a1.041,1.041,0,0,0,1.04,1.039h10.394a1.04,1.04,0,0,0,1.039-1.039v-13.72a1.041,1.041,0,0,0-1.039-1.04H2349.1v-1.247h3.742A2.288,2.288,0,0,1,2355.125,1836.611Z" fill="#828282"/>
        </g>
        <g id="Group_171" data-name="Group 171">
          <path id="Path_314" data-name="Path 314" d="M2349.72,1833.284v3.119a2.495,2.495,0,0,1-4.989,0v-3.119a.624.624,0,0,1,.624-.623h3.742A.623.623,0,0,1,2349.72,1833.284Zm-3.741,3.119a1.247,1.247,0,1,0,2.494,0v-2.495h-2.494Z" fill="#828282"/>
        </g>
      </g>
    </g>
    <g id="Group_173" data-name="Group 173">
      <rect id="Rectangle_80" data-name="Rectangle 80" width="9" height="1.5" transform="translate(2343.014 1840.538)" fill="#828282"/>
    </g>
    <g id="Group_174" data-name="Group 174">
      <rect id="Rectangle_81" data-name="Rectangle 81" width="9" height="1.5" transform="translate(2343.014 1843.471)" fill="#828282"/>
    </g>
    <g id="Group_175" data-name="Group 175">
      <rect id="Rectangle_82" data-name="Rectangle 82" width="4.776" height="1.5" transform="translate(2343.014 1846.673)" fill="#828282"/>
    </g>
  </g>
</svg>
