<svg xmlns="http://www.w3.org/2000/svg" width="18.37" height="18.37" viewBox="0 0 18.37 18.37">
  <g id="Group_150" data-name="Group 150" transform="translate(-1660.852 -1678.753)">
    <circle id="Ellipse_16" data-name="Ellipse 16" cx="9.185" cy="9.185" r="9.185" transform="translate(1660.852 1678.753)" fill="#494949"/>
    <g id="Group_149" data-name="Group 149">
      <path id="Path_271" data-name="Path 271" d="M1671.4,1690.725c.038.039.052.065.013.129a3.028,3.028,0,0,1-2.517,1.343c-.387,0-.5-.194-.5-.388a15.506,15.506,0,0,1,.76-2.4l.348-1.02a2.7,2.7,0,0,0,.194-.722.156.156,0,0,0-.167-.168c-.207,0-.787.659-.942.865-.051.052-.1.052-.142.013l-.117-.116c-.037-.039-.064-.09-.037-.117a3.612,3.612,0,0,1,2.476-1.586c.4,0,.568.206.568.464a5.8,5.8,0,0,1-.412,1.419l-.7,1.974a2.67,2.67,0,0,0-.206.787.159.159,0,0,0,.168.181c.258,0,.878-.683.954-.8a.069.069,0,0,1,.1-.013Zm.386-6.323a.932.932,0,0,1-.89.852.749.749,0,0,1-.826-.786.821.821,0,0,1,.8-.789C1671.494,1683.679,1671.79,1684,1671.79,1684.4Z" fill="#fff"/>
    </g>
  </g>
</svg>
