<svg xmlns="http://www.w3.org/2000/svg" width="17.462" height="16.63" viewBox="0 0 17.462 16.63">
  <g id="Group_169" data-name="Group 169" transform="translate(-2338.153 -1646.301)">
    <path id="Path_311" data-name="Path 311" d="M2350.779,1662.931h-8.261a1.873,1.873,0,0,1-1.871-1.871v-5.2h-1.455a1.041,1.041,0,0,1-1.039-1.04,1.03,1.03,0,0,1,.337-.761l7.963-7.59a.627.627,0,0,1,.861,0l2.064,1.965v-.682a.624.624,0,0,1,.624-.623h2.5a.623.623,0,0,1,.623.623V1652l2.168,2.069a1.02,1.02,0,0,1,.327.751,1.042,1.042,0,0,1-1.039,1.04h-.832v-1.248h.308l-1.985-1.893a.627.627,0,0,1-.193-.452v-3.891h-1.248v1.513a.624.624,0,0,1-1.054.452l-2.688-2.559-7.167,6.83h1.554a.625.625,0,0,1,.624.624v5.821a.624.624,0,0,0,.623.623h8.261Zm3.653-7.952.007.007Zm-15.087-.009,0,.005Z" fill="#828282"/>
  </g>
</svg>
