<svg xmlns="http://www.w3.org/2000/svg" width="17.877" height="17.901" viewBox="0 0 17.877 17.901">
  <g id="Group_166" data-name="Group 166" transform="translate(-2338.113 -1771.322)">
    <path id="Path_295" data-name="Path 295" d="M2354.673,1779.244a7.765,7.765,0,0,0,.07-1.039,7.675,7.675,0,0,0-.313-2.18l-.716.413A7.627,7.627,0,0,1,2354.673,1779.244Zm-15.244,0a7.931,7.931,0,0,1-.069-1.039,7.657,7.657,0,0,1,1.088-3.946,8.913,8.913,0,0,1,6.6-2.914v1.247A7.694,7.694,0,0,0,2339.429,1779.244Z" fill="#828282" fill-rule="evenodd"/>
    <path id="Path_296" data-name="Path 296" d="M2347.051,1772.592a7.688,7.688,0,1,0,6.663,3.846l1.08-.624a8.94,8.94,0,1,1-7.743-4.469Z" fill="#828282" fill-rule="evenodd"/>
    <g id="Group_165" data-name="Group 165">
      <path id="Path_297" data-name="Path 297" d="M2347.051,1777.581a1.871,1.871,0,1,0,1.871,1.871A1.871,1.871,0,0,0,2347.051,1777.581Zm-3.118,1.871a3.118,3.118,0,1,1,3.118,3.118A3.118,3.118,0,0,1,2343.933,1779.452Z" fill="#828282" fill-rule="evenodd"/>
      <path id="Path_298" data-name="Path 298" d="M2343.8,1785.73c-.837.418-1.117.881-1.117,1.206h-1.247a2.8,2.8,0,0,1,1.806-2.322,9.5,9.5,0,0,1,7.613,0,2.8,2.8,0,0,1,1.806,2.322h-1.247c0-.325-.28-.788-1.117-1.206a8.267,8.267,0,0,0-6.5,0Z" fill="#828282" fill-rule="evenodd"/>
      <path id="Path_299" data-name="Path 299" d="M2348.841,1772.952l3.044-1.461a1.693,1.693,0,0,1,2.425,1.458h0a1.693,1.693,0,0,1-2.3,1.648l-3.151-1.213A.235.235,0,0,1,2348.841,1772.952Z" fill="#828282"/>
    </g>
  </g>
</svg>
