<svg xmlns="http://www.w3.org/2000/svg" width="18.079" height="18.601" viewBox="0 0 18.079 18.601">
  <g id="Group_164" data-name="Group 164" transform="translate(-2337.813 -2139.113)">
    <g id="Group_161" data-name="Group 161">
      <g id="Group_160" data-name="Group 160">
        <path id="Path_285" data-name="Path 285" d="M2353.086,2148.489a2.206,2.206,0,0,0-1.658-.749h-1.586a2.21,2.21,0,0,0-2.21,2.211v5.553a2.209,2.209,0,0,0,2.21,2.21h1.586a2.205,2.205,0,0,0,1.658-.748.623.623,0,1,0-.935-.825.958.958,0,0,1-.723.326h-1.586a.963.963,0,0,1-.963-.963v-5.553a.963.963,0,0,1,.963-.963h1.586a.958.958,0,0,1,.723.326.623.623,0,0,0,.935-.825Z" fill="#828282" fill-rule="evenodd"/>
        <path id="Path_286" data-name="Path 286" d="M2355.451,2152.286a.623.623,0,0,1,0,.882l-1.663,1.663a.624.624,0,0,1-.882-.882l1.663-1.663A.625.625,0,0,1,2355.451,2152.286Z" fill="#828282" fill-rule="evenodd"/>
        <path id="Path_287" data-name="Path 287" d="M2355.451,2153.168a.623.623,0,0,0,0-.882l-1.663-1.663a.624.624,0,0,0-.882.882l1.663,1.663A.622.622,0,0,0,2355.451,2153.168Z" fill="#828282" fill-rule="evenodd"/>
        <path id="Path_288" data-name="Path 288" d="M2349.813,2152.727a.624.624,0,0,1,.624-.623h4.158a.624.624,0,0,1,0,1.247h-4.158A.624.624,0,0,1,2349.813,2152.727Z" fill="#828282" fill-rule="evenodd"/>
      </g>
    </g>
    <g id="Group_163" data-name="Group 163">
      <g id="Group_162" data-name="Group 162">
        <path id="Path_289" data-name="Path 289" d="M2345.985,2140.361a3.118,3.118,0,1,0,3.118,3.118A3.118,3.118,0,0,0,2345.985,2140.361Zm-4.366,3.118a4.366,4.366,0,1,1,4.366,4.365A4.366,4.366,0,0,1,2341.619,2143.479Z" fill="#828282" fill-rule="evenodd"/>
        <path id="Path_290" data-name="Path 290" d="M2345.781,2150.87l-.623.032a14.466,14.466,0,0,0-6.029,1.673.131.131,0,0,0-.069.115v3.054a.208.208,0,0,0,.208.208h6.481v1.247h-6.481a1.455,1.455,0,0,1-1.455-1.455v-3.054a1.379,1.379,0,0,1,.731-1.217,15.713,15.713,0,0,1,6.548-1.816l.623-.033Z" fill="#828282" fill-rule="evenodd"/>
        <path id="Path_291" data-name="Path 291" d="M2353.086,2148.489a2.206,2.206,0,0,0-1.657-.749h-1.587a2.21,2.21,0,0,0-2.21,2.211v5.553a2.209,2.209,0,0,0,2.21,2.21h1.587a2.2,2.2,0,0,0,1.657-.748l.413-.468-.935-.825-.413.468a.958.958,0,0,1-.722.326h-1.587a.963.963,0,0,1-.963-.963v-5.553a.963.963,0,0,1,.963-.963h1.587a.958.958,0,0,1,.722.326l.413.468.935-.826Z" fill="#828282" fill-rule="evenodd"/>
        <path id="Path_292" data-name="Path 292" d="M2355.892,2152.727l-2.545,2.545-.882-.882,2.545-2.545Z" fill="#828282" fill-rule="evenodd"/>
        <path id="Path_293" data-name="Path 293" d="M2355.892,2152.727l-2.545-2.545-.882.882,2.545,2.545Z" fill="#828282" fill-rule="evenodd"/>
        <path id="Path_294" data-name="Path 294" d="M2349.813,2152.1h5.405v1.247h-5.405Z" fill="#828282" fill-rule="evenodd"/>
      </g>
    </g>
  </g>
</svg>
